PathFileType	3	(X/Y/Z)	D:\minhoCalibration\240510\subject1_KPNP\preferred\preferred20.trc
DataRate	CameraRate	NumFrames	NumMarkers	Units	OrigDataRate	OrigDataStartFrame	OrigNumFrames
200.0	200.0	33	10	mm	200.0	560	219	
Frame#	Time	Left_Ankle_Outer1			Left_Ankle_Inner1			Left_Knee_Outer1			Left_Knee_Inner1			Left_Wrist1			Right_Wrist1			Right_Knee_Inner1			Right_Knee_Outer1			Right_Ankle_Inner1			Right_Ankle_Outer1			
		X1	Y1	Z1	X2	Y2	Z2	X3	Y3	Z3	X4	Y4	Z4	X5	Y5	Z5	X6	Y6	Z6	X7	Y7	Z7	X8	Y8	Z8	X9	Y9	Z9	X10	Y10	Z10	
560	2.79	-589.93597	124.47361	-558.95868	-631.60413	132.74873	-519.97778	-417.51425	521.34137	-399.93719	-521.02393	502.45923	-361.81418	-424.95306	980.00452	-547.34412	-748.40662	1039.5432	-411.15662	-534.1817	657.81873	-160.97197	-641.25323	688.66046	-128.37437	-708.73004	248.46494	-233.65376	-798.34857	249.56607	-169.6355
561	2.795	-589.8493	122.38976	-559.70337	-631.74304	130.58665	-520.95422	-417.70871	519.28833	-399.49588	-520.20856	500.6799	-361.11511	-424.79547	978.10461	-547.33459	-748.55658	1035.7125	-411.76004	-542.13702	645.89532	-169.02637	-648.58826	677.047	-136.18079	-718.22754	239.9323	-250.94122	-808.09088	239.51195	-185.45427
562	2.8	-589.62921	120.77777	-561.0047	-631.48022	129.07367	-522.42944	-417.92166	517.23346	-399.17804	-521.09192	498.93936	-361.19775	-424.55856	976.34149	-547.21246	-748.77728	1031.9243	-412.42816	-550.12036	634.3584	-177.42027	-656.08002	665.80737	-144.47617	-727.65918	231.10857	-265.30023	-817.31976	229.89844	-200.05034
563	2.805	-589.64636	118.92229	-561.86407	-631.79382	127.19035	-522.95886	-418.12195	515.26965	-399.06134	-521.70459	496.90146	-361.8782	-424.31076	974.67834	-546.99323	-749.08032	1028.1971	-413.189	-557.96338	623.56854	-185.55882	-663.66162	654.91003	-153.35828	-737.07538	221.56488	-280.43338	-826.26324	220.12144	-214.54558
564	2.81	-589.92365	117.06171	-562.66998	-632.36066	125.4838	-524.242	-418.49683	513.3075	-398.97501	-522.27979	494.84558	-362.57303	-424.14685	973.01471	-546.72266	-749.40326	1024.5278	-414.06766	-566.41034	612.89764	-194.89738	-671.45361	644.39771	-162.58324	-746.35217	212.78098	-292.87872	-835.2832	209.20877	-230.77344
565	2.815	-590.35541	115.14677	-563.29633	-633.00562	123.99076	-524.90594	-418.94879	511.42822	-399.01584	-523.08636	492.97095	-363.28168	-424.04767	971.5271	-546.30103	-749.86761	1021.0018	-415.01871	-574.43524	602.578	-204.04185	-679.32196	634.0899	-172.3567	-755.03131	202.81111	-308.1467	-843.58478	200.6039	-241.93369
566	2.82	-591.05023	113.53202	-563.76324	-633.81573	122.67343	-525.51483	-419.29752	509.62692	-399.22784	-524.3371	490.92789	-363.89893	-423.84775	970.146	-545.88013	-750.44043	1017.4185	-416.03995	-581.90521	592.73401	-213.33699	-686.83319	623.82361	-183.94318	-763.77173	194.8456	-323.07544	-852.28516	191.21306	-256.18811
567	2.825	-591.81085	112.0728	-564.15009	-634.81641	121.2626	-526.00409	-419.8768	508.0564	-399.36642	-524.97913	489.6481	-364.50339	-423.86053	968.78687	-545.30981	-751.22253	1013.902	-417.25449	-589.77289	583.20343	-222.75314	-694.78705	614.04034	-194.62212	-771.77942	186.67474	-335.84088	-860.19122	181.91608	-270.58087
568	2.83	-592.91705	110.64427	-564.41486	-637.18634	120.43096	-528.51764	-420.50714	506.49881	-399.57071	-526.29144	488.08856	-364.93713	-424.08823	967.45758	-544.65295	-752.13153	1010.3735	-418.62299	-597.35419	573.94659	-232.39674	-702.5874	604.65094	-205.77087	-780.45398	178.62976	-348.89584	-867.87781	173.34424	-284.4628
569	2.835	-594.08673	109.39558	-564.41711	-638.27887	118.95258	-527.7782	-421.1821	505.23734	-399.6893	-526.86298	487.40195	-365.25681	-423.85632	966.49042	-544.17749	-753.28937	1006.8776	-420.07083	-604.72217	565.07349	-242.21562	-710.35565	595.81842	-217.16171	-787.19006	170.05661	-361.31808	-874.99628	165.37119	-297.78622
570	2.84	-595.26337	108.18448	-564.36279	-639.50897	117.75498	-527.55109	-421.97165	504.05478	-399.89804	-528.39893	485.99033	-365.65134	-424.198	965.40198	-543.41846	-754.7243	1003.8049	-420.5976	-612.38989	556.47003	-253.22852	-718.07227	587.91345	-228.47803	-793.79651	161.16689	-370.43118	-881.76166	157.51819	-309.22098
571	2.845	-596.30139	107.27852	-564.31854	-639.81012	115.93264	-526.05676	-422.79163	503.28152	-399.81519	-529.3042	485.29526	-365.76276	-424.41693	964.5072	-542.80615	-755.20306	999.35394	-424.81522	-619.62543	548.56085	-264.38293	-725.60626	581.04889	-239.90347	-798.15936	153.88394	-381.45605	-887.69897	149.24886	-319.89252
572	2.85	-597.44897	106.05048	-563.89001	-641.69324	115.72329	-527.25635	-423.84872	502.44724	-399.75717	-530.32172	484.67957	-365.91638	-424.75446	963.70117	-542.1991	-756.52124	996.45856	-426.86133	-627.18896	541.32684	-276.6304	-732.73065	575.07489	-251.6855	-800.78925	145.00496	-385.79962	-892.24615	141.99185	-326.18002
573	2.855	-598.01843	105.35358	-564.20245	-642.48065	114.65056	-526.99219	-424.96051	501.88708	-399.48318	-531.36462	484.15024	-366.2417	-425.01312	962.93683	-541.75439	-757.97467	993.88849	-429.50793	-634.28174	535.31067	-289.07086	-739.72791	570.7713	-263.11493	-800.20721	139.02142	-389.17151	-895.98944	134.37619	-330.72537
574	2.86	-598.53235	104.4917	-564.21973	-642.70764	113.48884	-526.29437	-426.35388	501.32584	-399.09863	-532.58771	483.70734	-366.07623	-425.27951	962.22791	-541.36761	-758.40723	991.63031	-435.21017	-640.85767	530.8811	-301.53757	-746.7373	567.57257	-274.2735	-802.66321	131.53403	-391.6041	-898.92462	128.01671	-334.89285
575	2.865	-598.78693	103.71293	-564.38977	-643.58234	113.07336	-527.36273	-427.84308	500.95923	-398.60297	-533.93835	483.34995	-365.98203	-425.6481	961.58606	-541.08533	-762.42627	992.27136	-435.47729	-646.46344	528.21936	-312.9798	-753.91669	565.46411	-285.58969	-803.51007	126.6083	-393.88254	-899.55255	124.86616	-333.65918
576	2.87	-598.98108	102.94641	-564.55157	-643.92914	112.28007	-527.66797	-429.52173	500.68384	-397.97473	-535.47412	482.77829	-366.55948	-425.96671	961.11005	-540.74786	-764.25134	992.35168	-440.50351	-651.63983	525.95892	-326.52094	-760.99268	564.38934	-294.82358	-802.88269	123.74492	-397.29996	-900.52887	120.29371	-341.97931
577	2.875	-599.11267	102.21165	-564.79553	-644.28308	111.49598	-527.93665	-431.52774	500.46634	-397.38181	-536.91022	483.06708	-366.34787	-426.24591	960.72772	-540.35651	-767.17633	993.59967	-442.44751	-656.46729	526.15967	-336.44885	-767.25232	564.18658	-302.50894	-803.79395	120.71419	-398.99112	-899.13409	119.23354	-338.33606
578	2.88	-599.24847	101.41192	-565.05682	-644.52698	110.76139	-528.23676	-433.8486	500.54013	-396.69482	-539.00812	482.42603	-367.43796	-426.52902	960.52875	-539.7962	-768.64832	994.76184	-447.89877	-661.09998	527.67242	-343.46027	-771.88214	564.72443	-309.43954	-802.12854	119.67451	-400.38379	-899.05658	115.93457	-346.06329
579	2.885	-599.36285	100.82184	-565.26312	-645.09351	110.00549	-528.95203	-436.44894	500.70245	-396.14658	-541.84967	482.448	-367.51758	-426.52969	960.52808	-539.16632	-770.25262	995.94	-454.02643	-665.60132	529.86438	-348.07053	-775.77472	565.70984	-315.93912	-801.23383	118.72641	-400.91501	-898.18982	114.15293	-347.96484
580	2.89	-599.68994	100.32252	-565.48767	-645.6015	109.37318	-529.35419	-439.19635	501.05524	-395.82501	-544.32147	482.55841	-369.0524	-426.79935	960.59534	-538.16193	-771.17542	998.08087	-459.56815	-670.02869	532.25073	-351.66852	-779.74817	567.07233	-322.80765	-800.20984	118.44617	-401.44781	-897.05756	114.60197	-344.23737
581	2.895	-600.11371	99.864792	-565.64868	-646.12195	108.82364	-529.67242	-442.26593	501.51657	-395.65744	-547.55585	482.90439	-370.45602	-426.43985	960.98132	-537.4212	-770.99408	998.77911	-468.47806	-674.13879	536.10291	-351.06607	-784.26031	568.8255	-329.88062	-799.9599	118.22706	-401.58438	-897.60602	112.84157	-348.71521
582	2.9	-600.53156	99.596054	-565.79065	-646.70148	108.26086	-529.95398	-445.48987	502.12924	-395.7392	-551.59875	483.9686	-371.03534	-426.55005	961.638	-536.17633	-774.17053	1002.0837	-471.53073	-678.52197	538.59601	-354.22598	-789.28241	570.79333	-337.09399	-800.08252	118.60126	-401.54193	-896.87378	114.49431	-344.80222
583	2.905	-600.96295	99.37558	-565.92181	-647.31604	107.88645	-530.26129	-448.66019	503.09415	-395.97833	-554.93268	484.4812	-374.16507	-426.38278	962.78436	-535.0954	-772.16772	1001.6251	-489.47464	-682.79596	541.04333	-357.14478	-794.64874	572.6593	-344.22098	-800.33368	119.39745	-401.09277	-898.13892	114.12992	-348.88138
584	2.91	-601.36584	99.234688	-565.99219	-647.49243	107.48006	-529.9209	-452.43558	504.11682	-396.37796	-558.91125	485.65988	-376.23804	-426.24594	963.93243	-533.88068	-776.72961	1005.7317	-486.03433	-686.9259	543.45996	-359.8493	-799.71808	574.47369	-351.18439	-800.48242	120.71773	-400.3959	-898.55579	114.72793	-349.31064
585	2.915	-601.73492	99.202637	-566.10358	-647.85669	107.24117	-530.06372	-455.92072	505.46735	-397.07083	-562.81561	487.14835	-378.59955	-425.86127	965.39868	-532.66089	-777.77228	1007.9536	-491.04324	-691.03534	545.79401	-362.34396	-804.07996	576.25836	-358.03616	-800.65393	122.01348	-399.45117	-899.31775	115.25159	-349.99118
586	2.92	-602.01642	99.246902	-566.29077	-648.13977	107.06984	-530.36951	-459.36755	507.11584	-397.74521	-566.54388	488.62378	-381.59448	-425.9838	966.9873	-531.4007	-779.13562	1010.7079	-504.91403	-695.19452	548.10522	-364.40857	-808.45917	577.68103	-364.54156	-801.58105	123.64336	-399.53143	-899.75006	117.90145	-346.34799
587	2.925	-602.24341	99.350945	-566.53632	-647.86066	106.90387	-529.76025	-462.8985	508.90671	-398.7962	-570.68945	490.35767	-383.99921	-426.20337	968.79205	-530.13843	-780.65204	1011.1072	-505.53268	-699.35419	550.30579	-366.16678	-812.24103	579.06757	-370.74466	-802.27197	125.02512	-399.24207	-901.00165	119.04557	-347.33978
588	2.93	-602.38849	99.383606	-566.78503	-647.82776	106.5101	-529.9989	-466.48929	511.05624	-399.93475	-574.35901	492.06885	-387.24078	-426.80347	970.9267	-528.73566	-781.39624	1012.1711	-512.31342	-703.51044	552.40234	-367.63943	-815.78064	580.41882	-376.76694	-803.52466	126.6253	-400.21573	-903.16669	119.20367	-352.87827
589	2.935	-602.64172	99.312988	-567.02258	-648.7298	106.9971	-531.09949	-469.94312	512.76508	-401.53506	-577.98181	493.87979	-390.71216	-427.33426	972.95721	-527.35913	-782.42261	1013.4744	-522.12152	-707.38806	554.43048	-369.05081	-819.00964	581.76221	-382.64261	-805.11182	128.26717	-401.51813	-904.78217	120.81931	-354.28391
590	2.94	-602.81	99.301285	-567.36639	-648.55212	106.59893	-531.2337	-473.28653	514.42615	-403.41818	-581.45569	495.57382	-394.46527	-428.12134	974.97552	-525.87646	-782.49878	1015.3109	-524.69135	-710.87628	556.2049	-370.5824	-821.91101	582.85864	-388.2211	-806.92377	129.80869	-403.55832	-905.85834	124.23687	-350.13565
591	2.945	-603.10876	99.15345	-567.77588	-648.83191	106.3982	-531.83069	-476.5101	515.94672	-405.60001	-584.5849	496.97644	-398.99304	-429.09973	977.07452	-524.39874	-783.07092	1016.3529	-530.63983	-713.85455	557.73029	-372.48657	-824.75891	584.11713	-393.21555	-808.8692	131.48933	-406.11365	-907.49164	126.04418	-352.40753
592	2.95	-603.39563	98.96199	-568.1759	-649.21332	106.0455	-532.61584	-479.46027	517.36578	-407.97641	-587.68109	498.33124	-403.30289	-430.15787	978.95959	-523.11389	-784.20654	1016.9135	-535.86206	-716.17126	559.11969	-374.98111	-827.13959	585.46423	-397.70154	-810.69849	133.40198	-408.95236	-909.17767	128.16167	-354.93564
